<?xml version="1.0" encoding="UTF-8" standalone="no"?>
<!-- Created with Inkscape (http://www.inkscape.org/) -->

<svg
   xmlns:dc="http://purl.org/dc/elements/1.1/"
   xmlns:cc="http://creativecommons.org/ns#"
   xmlns:rdf="http://www.w3.org/1999/02/22-rdf-syntax-ns#"
   xmlns:svg="http://www.w3.org/2000/svg"
   xmlns="http://www.w3.org/2000/svg"
   xmlns:sodipodi="http://sodipodi.sourceforge.net/DTD/sodipodi-0.dtd"
   xmlns:inkscape="http://www.inkscape.org/namespaces/inkscape"
   id="svg2"
   version="1.1"
   inkscape:version="0.48.4 r9939"
   width="70.866142"
   height="34.84407"
   xml:space="preserve"
   sodipodi:docname="Felsina Factory logo.ai"><metadata
     id="metadata8"><rdf:RDF><cc:Work
         rdf:about=""><dc:format>image/svg+xml</dc:format><dc:type
           rdf:resource="http://purl.org/dc/dcmitype/StillImage" /><dc:title></dc:title></cc:Work></rdf:RDF></metadata><defs
     id="defs6"><clipPath
       clipPathUnits="userSpaceOnUse"
       id="clipPath16"><path
         d="m 0,595.28 841.89,0 L 841.89,0 0,0 0,595.28 z"
         id="path18"
         inkscape:connector-curvature="0" /></clipPath></defs><sodipodi:namedview
     pagecolor="#ffffff"
     bordercolor="#666666"
     borderopacity="1"
     objecttolerance="10"
     gridtolerance="10"
     guidetolerance="10"
     inkscape:pageopacity="0"
     inkscape:pageshadow="2"
     inkscape:window-width="1330"
     inkscape:window-height="747"
     id="namedview4"
     showgrid="false"
     fit-margin-top="0"
     fit-margin-left="0"
     fit-margin-right="0"
     fit-margin-bottom="0"
     inkscape:zoom="0.31716168"
     inkscape:cx="219.36328"
     inkscape:cy="108.47377"
     inkscape:window-x="36"
     inkscape:window-y="21"
     inkscape:window-maximized="1"
     inkscape:current-layer="g10" /><g
     id="g10"
     inkscape:groupmode="layer"
     inkscape:label="Felsina Factory logo"
     transform="matrix(1.25,0,0,-1.25,-306.818,298.42032)"><g
       id="g12"
       transform="matrix(0.16061153,0,0,0.16061153,206.03159,176.99429)"><g
         id="g14"
         clip-path="url(#clipPath16)"><g
           id="g20"
           transform="translate(251.6934,370.0195)"><path
             d="m 0,0 -6.239,0 0,14.398 41.276,0 c 4.896,0 7.008,-2.111 7.008,-7.006 l 0,-13.247 -15.359,0 0,3.743 C 26.686,-0.769 25.918,0 24.574,0 l -7.391,0 0,-14.399 19.583,0 0,-14.399 -19.583,0 0,-25.438 L 0,-54.236 0,0 z"
             style="fill:#231f20;fill-opacity:1;fill-rule:nonzero;stroke:none"
             id="path22"
             inkscape:connector-curvature="0" /></g><g
           id="g24"
           transform="translate(328.875,347.5566)"><path
             d="m 0,0 c 0,3.072 -2.399,6.336 -5.855,6.336 -4.8,0 -7.2,-2.688 -8.255,-6.336 L 0,0 z m -5.855,18.814 c 14.59,0 22.846,-10.174 22.846,-23.901 0,-1.633 -0.384,-4.992 -0.384,-4.992 l -31.198,0 c 1.248,-6.239 6.24,-9.024 11.52,-9.024 7.103,0 13.151,5.184 13.151,5.184 l 6.623,-11.135 c 0,0 -7.968,-7.872 -21.118,-7.872 -17.663,0 -27.166,12.768 -27.166,25.919 0,14.494 9.791,25.821 25.726,25.821"
             style="fill:#231f20;fill-opacity:1;fill-rule:nonzero;stroke:none"
             id="path26"
             inkscape:connector-curvature="0" /></g><g
           id="g28"
           transform="translate(356.2373,368.3877)"><path
             d="m 0,0 c 0,1.344 -0.769,2.111 -2.112,2.111 l -3.648,0 0,13.919 15.359,0 c 4.895,0 7.007,-2.111 7.007,-7.007 l 0,-45.596 c 0,-1.345 0.768,-2.113 2.112,-2.113 l 3.648,0 0,-13.918 -15.359,0 C 2.111,-52.604 0,-50.492 0,-45.597 L 0,0 z"
             style="fill:#231f20;fill-opacity:1;fill-rule:nonzero;stroke:none"
             id="path30"
             inkscape:connector-curvature="0" /></g><g
           id="g32"
           transform="translate(389.9316,334.3096)"><path
             d="m 0,0 c 0,0 6.911,-7.104 14.495,-7.104 2.4,0 3.743,0.672 3.743,2.401 0,4.128 -24.765,5.472 -24.765,21.502 0,10.655 9.886,15.263 20.35,15.263 8.064,0 19.198,-2.304 19.198,-11.231 l 0,-5.855 -14.399,0 0,2.399 c 0,1.344 -2.111,2.304 -4.512,2.304 -2.303,0 -4.415,-0.768 -4.415,-2.304 0,-5.088 25.054,-4.416 25.054,-21.022 0,-9.984 -8.735,-16.032 -20.254,-16.032 -14.207,0 -21.887,9.024 -21.887,9.024 L 0,0 z"
             style="fill:#231f20;fill-opacity:1;fill-rule:nonzero;stroke:none"
             id="path34"
             inkscape:connector-curvature="0" /></g><path
           d="m 436.779,384.418 13.919,0 0,-13.438 -13.919,0 0,13.438 z m -1.248,-35.23 c 0,1.344 -0.767,2.113 -2.111,2.113 l -3.649,0 0,13.919 15.36,0 c 4.895,0 7.007,-2.113 7.007,-7.008 l 0,-26.398 c 0,-1.344 0.768,-2.112 2.112,-2.112 l 3.647,0 0,-13.919 -15.358,0 c -4.895,0 -7.008,2.113 -7.008,7.008 l 0,26.397 z"
           style="fill:#231f20;fill-opacity:1;fill-rule:nonzero;stroke:none"
           id="path36"
           inkscape:connector-curvature="0" /><g
           id="g38"
           transform="translate(467.5947,349.1885)"><path
             d="m 0,0 c 0,1.344 -0.769,2.112 -2.112,2.112 l -3.648,0 0,13.919 14.783,0 c 4.512,0 6.912,-2.208 6.912,-5.567 l 0,-0.672 c 0,-0.48 -0.096,-1.152 -0.096,-1.152 l 0.191,0 c 2.304,3.839 6.912,8.543 15.648,8.543 9.983,0 17.759,-4.608 17.759,-18.527 l 0,-16.03 c 0,-1.345 0.767,-2.112 2.111,-2.112 l 3.647,0 0,-13.919 -15.358,0 c -4.896,0 -7.008,2.112 -7.008,7.008 l 0,21.982 c 0,4.607 -1.823,6.527 -5.472,6.527 -5.183,0 -8.351,-2.88 -9.791,-7.103 -0.671,-1.92 -0.96,-4.128 -0.96,-6.528 l 0,-21.886 L 0,-33.405 0,0 z"
             style="fill:#231f20;fill-opacity:1;fill-rule:nonzero;stroke:none"
             id="path40"
             inkscape:connector-curvature="0" /></g><g
           id="g42"
           transform="translate(548.5205,327.3027)"><path
             d="m 0,0 c 4.319,0 8.159,4.703 8.159,8.735 l 0,0.768 -1.536,0 C 1.344,9.503 -4.704,8.063 -4.704,4.127 -4.704,1.823 -3.264,0 0,0 m 7.295,19.582 0.672,0 0,0.576 c 0,4.704 -2.207,6.432 -6.335,6.432 -2.112,0 -4.32,-0.481 -4.32,-2.401 l 0,-2.207 -15.359,0 0,5.472 c 0,11.039 14.015,11.614 19.679,11.614 17.278,0 22.942,-8.831 22.942,-20.158 l 0,-14.398 c 0,-1.345 0.768,-2.113 2.112,-2.113 l 3.648,0 0,-13.919 -14.399,0 c -4.8,0 -6.528,2.976 -6.528,5.184 l 0,0.864 -0.192,0 c 0,0 -3.455,-7.2 -13.822,-7.2 -9.216,0 -16.799,6.144 -16.799,15.936 0,14.686 21.022,16.318 28.701,16.318"
             style="fill:#231f20;fill-opacity:1;fill-rule:nonzero;stroke:none"
             id="path44"
             inkscape:connector-curvature="0" /></g><g
           id="g46"
           transform="translate(251.6934,293.5195)"><path
             d="m 0,0 -6.239,0 0,14.398 41.276,0 c 4.896,0 7.008,-2.111 7.008,-7.006 l 0,-13.247 -15.359,0 0,3.743 C 26.686,-0.769 25.918,0 24.574,0 l -7.391,0 0,-14.399 19.583,0 0,-14.399 -19.583,0 0,-25.438 L 0,-54.236 0,0 z"
             style="fill:#231f20;fill-opacity:1;fill-rule:nonzero;stroke:none"
             id="path48"
             inkscape:connector-curvature="0" /></g><g
           id="g50"
           transform="translate(318.0273,250.8027)"><path
             d="m 0,0 c 4.319,0 8.159,4.703 8.159,8.735 l 0,0.768 -1.536,0 C 1.344,9.503 -4.704,8.063 -4.704,4.127 -4.704,1.823 -3.264,0 0,0 m 7.295,19.582 0.672,0 0,0.576 c 0,4.704 -2.207,6.432 -6.335,6.432 -2.112,0 -4.32,-0.481 -4.32,-2.401 l 0,-2.207 -15.359,0 0,5.472 c 0,11.039 14.015,11.614 19.679,11.614 17.278,0 22.942,-8.831 22.942,-20.158 l 0,-14.398 c 0,-1.345 0.768,-2.113 2.112,-2.113 l 3.648,0 0,-13.919 -14.399,0 c -4.8,0 -6.528,2.976 -6.528,5.184 l 0,0.864 -0.192,0 c 0,0 -3.455,-7.2 -13.822,-7.2 -9.216,0 -16.799,6.144 -16.799,15.936 0,14.686 21.022,16.318 28.701,16.318"
             style="fill:#231f20;fill-opacity:1;fill-rule:nonzero;stroke:none"
             id="path52"
             inkscape:connector-curvature="0" /></g><g
           id="g54"
           transform="translate(380.3311,289.8711)"><path
             d="m 0,0 c 6.911,0 18.238,-2.688 18.238,-11.614 l 0,-6.817 -14.399,0 0,2.592 c 0,1.536 -1.823,2.112 -3.839,2.112 -7.008,0 -11.231,-5.279 -11.231,-11.903 0,-8.447 6.335,-11.807 12.478,-11.807 7.104,0 13.632,6.432 13.632,6.432 l 6.623,-11.136 c 0,0 -7.775,-9.599 -21.887,-9.599 -17.662,0 -27.55,12.287 -27.55,25.919 C -27.935,-12.767 -18.719,0 0,0"
             style="fill:#231f20;fill-opacity:1;fill-rule:nonzero;stroke:none"
             id="path56"
             inkscape:connector-curvature="0" /></g><g
           id="g58"
           transform="translate(409.9951,275.7607)"><path
             d="m 0,0 -6.335,0 0,12.959 6.815,0 0,13.343 16.127,0 0,-13.343 10.368,0 0,-12.959 -10.368,0 0,-16.031 c 0,-5.568 5.664,-6.335 8.831,-6.335 1.344,0 2.208,0.095 2.208,0.095 l 0,-14.399 c 0,0 -1.824,-0.287 -4.511,-0.287 C 15.263,-36.957 0,-34.846 0,-18.239 L 0,0 z"
             style="fill:#231f20;fill-opacity:1;fill-rule:nonzero;stroke:none"
             id="path60"
             inkscape:connector-curvature="0" /></g><g
           id="g62"
           transform="translate(508.2012,272.6885)"><path
             d="m 0,0 c 0,1.344 -0.768,2.112 -2.111,2.112 l -3.649,0 0,13.919 14.688,0 c 4.511,0 7.007,-1.824 7.007,-6.336 l 0,-2.591 c 0,-1.536 -0.192,-2.496 -0.192,-2.496 l 0.192,0 c 2.112,6.719 8.351,12.288 15.743,12.288 0.96,0 1.92,-0.193 1.92,-0.193 l 0,-16.318 c 0,0 -1.344,0.287 -3.36,0.287 -3.935,0 -10.367,-1.247 -12.767,-8.639 -0.576,-1.824 -0.864,-4.032 -0.864,-6.72 l 0,-18.718 L 0,-33.405 0,0 z"
             style="fill:#231f20;fill-opacity:1;fill-rule:nonzero;stroke:none"
             id="path64"
             inkscape:connector-curvature="0" /></g><g
           id="g66"
           transform="translate(557.543,232.9473)"><path
             d="M 0,0 C 2.688,0 5.759,0.769 7.391,4.896 L 7.967,6.336 -7.68,40.317 c -0.576,1.248 -0.96,1.537 -2.112,1.537 l -1.823,0 0,13.918 12.094,0 c 2.785,0 4.8,-1.44 5.76,-4.032 l 7.295,-19.966 c 0.96,-2.688 1.824,-7.679 1.824,-7.679 l 0.193,0 c 0,0 0.863,4.991 1.632,7.679 l 5.471,19.966 c 0.672,2.592 3.264,4.032 5.856,4.032 l 12.383,0 0,-13.918 -1.825,0 c -1.151,0 -1.823,-0.289 -2.303,-1.537 L 21.79,1.057 C 17.566,-9.887 9.022,-13.822 1.151,-13.822 c -8.543,0 -13.919,5.279 -13.919,5.279 L -6.816,3.168 C -6.816,3.168 -3.937,0 0,0"
             style="fill:#231f20;fill-opacity:1;fill-rule:nonzero;stroke:none"
             id="path68"
             inkscape:connector-curvature="0" /></g><g
           id="g70"
           transform="translate(470.5234,252.668)"><path
             d="m 0,0 c -6.689,0 -12.112,5.423 -12.112,12.112 0,6.692 5.423,12.114 12.112,12.114 6.689,0 12.112,-5.422 12.112,-12.114 C 12.112,5.423 6.689,0 0,0 m -0.191,40.231 c -15.688,0 -28.406,-12.716 -28.406,-28.405 0,-28.39 28.406,-53.633 28.406,-53.633 0,0 28.405,25.237 28.405,53.633 0,15.689 -12.718,28.405 -28.405,28.405"
             style="fill:#db1f26;fill-opacity:1;fill-rule:nonzero;stroke:none"
             id="path72"
             inkscape:connector-curvature="0" /></g></g></g></g></svg>