<?xml version="1.0" encoding="UTF-8" standalone="no"?>
<!-- Created with Inkscape (http://www.inkscape.org/) -->

<svg
   xmlns:dc="http://purl.org/dc/elements/1.1/"
   xmlns:cc="http://creativecommons.org/ns#"
   xmlns:rdf="http://www.w3.org/1999/02/22-rdf-syntax-ns#"
   xmlns:svg="http://www.w3.org/2000/svg"
   xmlns="http://www.w3.org/2000/svg"
   xmlns:sodipodi="http://sodipodi.sourceforge.net/DTD/sodipodi-0.dtd"
   xmlns:inkscape="http://www.inkscape.org/namespaces/inkscape"
   id="svg2"
   version="1.1"
   inkscape:version="0.48.4 r9939"
   width="88.58268"
   height="52.389"
   xml:space="preserve"
   sodipodi:docname="LINUS GAMES LOGO 2016.ai"><metadata
     id="metadata8"><rdf:RDF><cc:Work
         rdf:about=""><dc:format>image/svg+xml</dc:format><dc:type
           rdf:resource="http://purl.org/dc/dcmitype/StillImage" /><dc:title></dc:title></cc:Work></rdf:RDF></metadata><defs
     id="defs6"><clipPath
       clipPathUnits="userSpaceOnUse"
       id="clipPath16"><path
         d="m 0,365.008 559.008,0 L 559.008,0 0,0 0,365.008 z"
         id="path18"
         inkscape:connector-curvature="0" /></clipPath></defs><sodipodi:namedview
     pagecolor="#ffffff"
     bordercolor="#666666"
     borderopacity="1"
     objecttolerance="10"
     gridtolerance="10"
     guidetolerance="10"
     inkscape:pageopacity="0"
     inkscape:pageshadow="2"
     inkscape:window-width="1330"
     inkscape:window-height="747"
     id="namedview4"
     showgrid="false"
     fit-margin-top="0"
     fit-margin-left="0"
     fit-margin-right="0"
     fit-margin-bottom="0"
     inkscape:zoom="0.51724893"
     inkscape:cx="273.88725"
     inkscape:cy="171.079"
     inkscape:window-x="36"
     inkscape:window-y="21"
     inkscape:window-maximized="1"
     inkscape:current-layer="g10" /><g
     id="g10"
     inkscape:groupmode="layer"
     inkscape:label="LINUS GAMES LOGO 2016"
     transform="matrix(1.25,0,0,-1.25,-75.49275,109.44)"><g
       id="g12"
       transform="matrix(0.15624666,0,0,0.15624666,50.957808,38.509577)"><g
         id="g14"
         clip-path="url(#clipPath16)"><g
           id="g20"
           transform="translate(113.4502,102.6348)"><path
             d="m 0,0 c 3.455,3.795 5.184,9.845 5.184,18.143 0,7.794 -1.641,13.73 -4.92,17.803 -3.282,4.074 -7.676,6.111 -13.184,6.111 -7.514,0 -12.695,-3.546 -15.551,-10.637 -1.504,-3.772 -2.254,-8.425 -2.254,-13.956 0,-4.778 0.799,-9.029 2.403,-12.749 2.904,-6.941 8.113,-10.411 15.627,-10.411 5.008,0 9.24,1.897 12.695,5.696 M -7.322,58.955 C -2.1,56.792 2.119,52.818 5.336,47.036 l 0,11.844 20.972,0 0,-78.004 c 0,-10.612 -1.787,-18.608 -5.358,-23.99 -6.136,-9.253 -17.905,-13.88 -35.304,-13.88 -10.513,0 -19.085,2.061 -25.724,6.185 -6.639,4.124 -10.313,10.286 -11.016,18.483 l 23.387,0 c 0.603,-2.515 1.584,-4.325 2.941,-5.432 2.313,-1.961 6.211,-2.942 11.694,-2.942 7.744,0 12.924,2.591 15.541,7.77 1.709,3.32 2.564,8.903 2.564,16.748 l 0,5.281 c -2.062,-3.522 -4.275,-6.162 -6.638,-7.921 -4.276,-3.271 -9.834,-4.904 -16.672,-4.904 -10.561,0 -18.998,3.707 -25.309,11.127 -6.314,7.417 -9.47,17.464 -9.47,30.138 0,12.221 3.04,22.493 9.117,30.816 6.078,8.324 14.691,12.486 25.843,12.486 4.119,0 7.709,-0.629 10.774,-1.886"
             style="fill:#231f20;fill-opacity:1;fill-rule:nonzero;stroke:none"
             id="path22"
             inkscape:connector-curvature="0" /></g><g
           id="g24"
           transform="translate(197.8125,119.2686)"><path
             d="M 0,0 C -1.375,-0.855 -2.766,-1.547 -4.168,-2.074 -5.57,-2.603 -7.494,-3.093 -9.941,-3.546 l -4.895,-0.905 c -4.586,-0.805 -7.881,-1.786 -9.883,-2.942 -3.385,-1.961 -5.078,-5.005 -5.078,-9.128 0,-3.672 1.033,-6.326 3.102,-7.958 2.068,-1.636 4.584,-2.453 7.547,-2.453 4.697,0 9.025,1.359 12.984,4.074 3.957,2.715 6.012,7.669 6.164,14.862 L 0,0 z m -13.146,10.033 c 4.003,0.503 6.865,1.132 8.587,1.886 3.092,1.308 4.637,3.345 4.637,6.111 0,3.369 -1.185,5.696 -3.557,6.978 -2.371,1.282 -5.849,1.924 -10.437,1.924 -5.148,0 -8.795,-1.258 -10.936,-3.772 -1.529,-1.861 -2.548,-4.376 -3.058,-7.544 l -20.746,0 c 0.455,7.192 2.474,13.101 6.06,17.728 5.709,7.242 15.506,10.864 29.399,10.864 9.041,0 17.07,-1.787 24.093,-5.357 7.02,-3.572 10.532,-10.311 10.532,-20.217 l 0,-37.72 c 0,-2.616 0.049,-5.785 0.15,-9.505 0.151,-2.818 0.576,-4.729 1.281,-5.733 0.703,-1.008 1.76,-1.837 3.17,-2.49 l 0,-3.168 -23.386,0 c -0.655,1.659 -1.108,3.217 -1.358,4.676 -0.254,1.457 -0.453,3.118 -0.603,4.98 -2.987,-3.22 -6.426,-5.96 -10.321,-8.223 -4.654,-2.666 -9.916,-3.999 -15.783,-3.999 -7.486,0 -13.67,2.125 -18.551,6.375 -4.884,4.248 -7.324,10.271 -7.324,18.068 0,10.109 3.928,17.426 11.779,21.953 4.307,2.464 10.641,4.224 19,5.28 l 7.372,0.905 z"
             style="fill:#231f20;fill-opacity:1;fill-rule:nonzero;stroke:none"
             id="path26"
             inkscape:connector-curvature="0" /></g><g
           id="g28"
           transform="translate(332.8965,161.2129)"><path
             d="m 0,0 c 3.518,-1.409 6.713,-3.874 9.58,-7.394 2.313,-2.866 3.871,-6.387 4.678,-10.561 0.502,-2.767 0.754,-6.815 0.754,-12.146 l -0.151,-51.826 -22.029,0 0,52.355 c 0,3.117 -0.504,5.682 -1.508,7.694 -1.912,3.822 -5.431,5.733 -10.562,5.733 -5.936,0 -10.033,-2.464 -12.297,-7.392 -1.156,-2.616 -1.735,-5.759 -1.735,-9.43 l 0,-48.96 -21.65,0 0,48.96 c 0,4.878 -0.504,8.423 -1.51,10.637 -1.81,3.973 -5.355,5.96 -10.636,5.96 -6.137,0 -10.26,-1.987 -12.372,-5.96 -1.158,-2.264 -1.736,-5.634 -1.736,-10.109 l 0,-49.488 -21.801,0 0,82.078 20.897,0 0,-11.995 c 2.664,4.274 5.178,7.318 7.543,9.128 4.174,3.218 9.582,4.828 16.221,4.828 6.285,0 11.365,-1.383 15.238,-4.149 3.117,-2.565 5.48,-5.859 7.092,-9.883 2.814,4.828 6.31,8.374 10.484,10.637 4.426,2.263 9.355,3.395 14.787,3.395 C -7.092,2.112 -3.521,1.407 0,0"
             style="fill:#231f20;fill-opacity:1;fill-rule:nonzero;stroke:none"
             id="path30"
             inkscape:connector-curvature="0" /></g><g
           id="g32"
           transform="translate(381.3672,141.2754)"><path
             d="m 0,0 c -3.039,-3.132 -4.947,-7.374 -5.729,-12.728 l 37.041,0 C 30.922,-7.021 29.014,-2.689 25.584,0.266 22.156,3.221 17.908,4.698 12.834,4.698 7.314,4.698 3.037,3.132 0,0 m 32.164,18.574 c 5.736,-2.57 10.473,-6.625 14.209,-12.165 3.369,-4.886 5.553,-10.552 6.553,-17 0.578,-3.777 0.814,-9.218 0.707,-16.319 l -59.889,0 c 0.334,-8.249 3.199,-14.032 8.6,-17.352 3.283,-2.062 7.234,-3.092 11.853,-3.092 4.899,0 8.877,1.255 11.938,3.772 1.67,1.357 3.146,3.243 4.426,5.657 l 21.951,0 c -0.58,-4.879 -3.237,-9.833 -7.973,-14.861 -7.365,-7.996 -17.676,-11.994 -30.934,-11.994 -10.945,0 -20.599,3.372 -28.964,10.116 -8.366,6.745 -12.547,17.719 -12.547,32.921 0,14.244 3.775,25.167 11.326,32.767 7.553,7.601 17.353,11.403 29.406,11.403 7.156,0 13.602,-1.285 19.338,-3.853"
             style="fill:#231f20;fill-opacity:1;fill-rule:nonzero;stroke:none"
             id="path34"
             inkscape:connector-curvature="0" /></g><g
           id="g36"
           transform="translate(460.5352,105.5391)"><path
             d="m 0,0 c 0.455,-3.824 1.439,-6.54 2.957,-8.147 2.678,-2.868 7.629,-4.3 14.855,-4.3 4.247,0 7.62,0.627 10.122,1.885 2.5,1.256 3.752,3.142 3.752,5.658 0,2.414 -1.008,4.249 -3.024,5.508 -2.016,1.255 -9.514,3.417 -22.492,6.487 -9.344,2.312 -15.928,5.205 -19.748,8.676 -3.824,3.419 -5.734,8.347 -5.734,14.786 0,7.593 2.986,14.119 8.958,19.576 5.973,5.456 14.377,8.185 25.213,8.185 10.282,0 18.661,-2.05 25.137,-6.148 6.477,-4.1 10.193,-11.179 11.152,-21.236 l -21.5,0 c -0.302,2.765 -1.086,4.953 -2.345,6.563 -2.371,2.916 -6.407,4.375 -12.104,4.375 -4.689,0 -8.031,-0.729 -10.023,-2.187 -1.992,-1.459 -2.987,-3.169 -2.987,-5.13 0,-2.465 1.059,-4.25 3.176,-5.357 2.117,-1.157 9.6,-3.143 22.449,-5.96 8.565,-2.011 14.985,-5.053 19.26,-9.128 4.225,-4.124 6.338,-9.278 6.338,-15.464 0,-8.148 -3.037,-14.8 -9.109,-19.954 -6.073,-5.155 -15.459,-7.732 -28.157,-7.732 -12.953,0 -22.515,2.728 -28.687,8.185 -6.174,5.456 -9.26,12.41 -9.26,20.859 L 0,0 z"
             style="fill:#231f20;fill-opacity:1;fill-rule:nonzero;stroke:none"
             id="path38"
             inkscape:connector-curvature="0" /></g><path
           d="m 139.937,172.502 -21.501,0 0,113.937 21.501,0 0,-113.937 z"
           style="fill:#231f20;fill-opacity:1;fill-rule:nonzero;stroke:none"
           id="path40"
           inkscape:connector-curvature="0" /><path
           d="m 153.486,254.73 21.801,0 0,-82.229 -21.801,0 0,82.229 z"
           style="fill:#231f20;fill-opacity:1;fill-rule:nonzero;stroke:none"
           id="path42"
           inkscape:connector-curvature="0" /><g
           id="g44"
           transform="translate(254.6914,250.0156)"><path
             d="m 0,0 c 5.383,-4.451 8.074,-11.832 8.074,-22.141 l 0,-55.373 -22.027,0 0,50.016 c 0,4.325 -0.574,7.644 -1.723,9.958 -2.097,4.225 -6.09,6.337 -11.982,6.337 -7.24,0 -12.205,-3.092 -14.903,-9.278 -1.396,-3.27 -2.095,-7.445 -2.095,-12.523 l 0,-44.51 -21.5,0 0,82.078 20.82,0 0,-11.995 c 2.754,4.225 5.359,7.267 7.813,9.128 4.406,3.32 9.992,4.979 16.753,4.979 C -12.307,6.676 -5.387,4.451 0,0"
             style="fill:#231f20;fill-opacity:1;fill-rule:nonzero;stroke:none"
             id="path46"
             inkscape:connector-curvature="0" /></g><g
           id="g48"
           transform="translate(301.1475,256.6992)"><path
             d="m 0,0 -8.607,-48.811 c -0.812,-4.606 -0.881,-8.169 -0.207,-10.687 1.197,-4.451 4.604,-7.171 10.223,-8.161 7.194,-1.269 12.639,0.784 16.329,6.159 1.94,2.926 3.368,6.99 4.285,12.19 l 7.769,44.056 21.47,-3.785 -14.28,-80.98 -20.579,3.628 2.018,11.442 c -0.242,-0.213 -0.867,-0.869 -1.874,-1.967 -1.007,-1.101 -2.138,-2.024 -3.393,-2.773 -3.832,-2.388 -7.388,-3.855 -10.666,-4.401 -3.281,-0.544 -6.993,-0.451 -11.142,0.28 -11.952,2.108 -19.242,7.835 -21.871,17.185 -1.485,5.165 -1.409,12.377 0.225,21.639 L -21.693,3.824 0,0 z"
             style="fill:#231f20;fill-opacity:1;fill-rule:nonzero;stroke:none"
             id="path50"
             inkscape:connector-curvature="0" /></g><g
           id="g52"
           transform="translate(378.3535,198.7549)"><path
             d="m 0,0 c 0.455,-3.823 1.441,-6.539 2.957,-8.147 2.678,-2.867 7.631,-4.3 14.857,-4.3 4.245,0 7.618,0.628 10.12,1.885 2.502,1.257 3.752,3.143 3.752,5.659 0,2.414 -1.01,4.249 -3.024,5.507 C 26.646,1.86 19.15,4.023 6.17,7.091 c -9.344,2.313 -15.926,5.205 -19.748,8.676 -3.822,3.419 -5.734,8.348 -5.734,14.786 0,7.593 2.986,14.119 8.958,19.576 5.973,5.456 14.377,8.185 25.213,8.185 10.282,0 18.662,-2.05 25.137,-6.148 6.477,-4.1 10.193,-11.178 11.152,-21.236 l -21.5,0 c -0.302,2.765 -1.084,4.953 -2.343,6.563 -2.373,2.917 -6.409,4.376 -12.106,4.376 -4.689,0 -8.031,-0.73 -10.023,-2.188 -1.992,-1.459 -2.988,-3.168 -2.988,-5.13 0,-2.465 1.058,-4.25 3.179,-5.356 2.115,-1.157 9.598,-3.144 22.447,-5.96 8.565,-2.012 14.985,-5.054 19.26,-9.128 4.225,-4.125 6.338,-9.279 6.338,-15.465 0,-8.147 -3.037,-14.799 -9.109,-19.954 -6.074,-5.154 -15.459,-7.732 -28.157,-7.732 -12.953,0 -22.515,2.729 -28.687,8.185 -6.176,5.456 -9.26,12.41 -9.26,20.859 L 0,0 z"
             style="fill:#231f20;fill-opacity:1;fill-rule:nonzero;stroke:none"
             id="path54"
             inkscape:connector-curvature="0" /></g><g
           id="g56"
           transform="translate(338.8447,308.9277)"><path
             d="M 0,0 C 1.593,0.231 3.072,-0.873 3.303,-2.466 3.534,-4.059 2.429,-5.54 0.836,-5.771 -0.757,-6.001 -2.237,-4.896 -2.468,-3.303 -2.699,-1.709 -1.594,-0.231 0,0 m 8.529,-6.37 c 1.594,0.232 3.074,-0.873 3.304,-2.467 0.231,-1.593 -0.873,-3.073 -2.467,-3.304 -1.593,-0.231 -3.072,0.875 -3.304,2.468 -0.23,1.593 0.875,3.073 2.467,3.303 m 8.396,-6.269 c 1.594,0.231 3.075,-0.875 3.305,-2.467 0.232,-1.594 -0.875,-3.074 -2.468,-3.305 -1.592,-0.231 -3.074,0.874 -3.305,2.468 -0.23,1.592 0.876,3.073 2.468,3.304 m -15.92,-11.118 19.161,2.778 c 1.86,0.27 3.149,1.996 2.88,3.854 L 20.268,2.036 c -0.27,1.86 -1.996,3.148 -3.855,2.879 L -2.748,2.137 C -4.607,1.867 -5.896,0.142 -5.626,-1.717 l 2.777,-19.161 c 0.27,-1.859 1.995,-3.148 3.854,-2.879"
             style="fill:#231f20;fill-opacity:1;fill-rule:nonzero;stroke:none"
             id="path58"
             inkscape:connector-curvature="0" /></g><g
           id="g60"
           transform="translate(320.6875,273.085)"><path
             d="M 0,0 C 0.568,1.459 2.212,2.181 3.667,1.613 5.126,1.044 5.851,-0.599 5.279,-2.056 4.714,-3.513 3.071,-4.235 1.611,-3.669 0.152,-3.101 -0.568,-1.458 0,0 m -7.768,-7.389 13.147,-5.293 c 1.273,-0.513 2.725,0.105 3.237,1.38 l 5.293,13.146 c 0.514,1.275 -0.103,2.725 -1.38,3.239 l -13.146,5.293 c -1.277,0.513 -2.725,-0.105 -3.239,-1.38 L -9.148,-4.15 c -0.514,-1.275 0.104,-2.725 1.38,-3.239"
             style="fill:#231f20;fill-opacity:1;fill-rule:nonzero;stroke:none"
             id="path62"
             inkscape:connector-curvature="0" /></g><path
           d="m 153.412,254.618 21.771,0 0,-82.116 -21.771,0 0,82.116 z m 21.772,9.793 -21.771,0 0,19.813 21.771,0 0,-19.813 z"
           style="fill:#231f20;fill-opacity:1;fill-rule:nonzero;stroke:none"
           id="path64"
           inkscape:connector-curvature="0" /></g></g></g></svg>